<?xml version="1.0" encoding="utf-8"?>
<!-- Generator: Adobe Illustrator 16.0.0, SVG Export Plug-In . SVG Version: 6.00 Build 0)  -->
<!DOCTYPE svg PUBLIC "-//W3C//DTD SVG 1.1//EN" "http://www.w3.org/Graphics/SVG/1.1/DTD/svg11.dtd">
<svg version="1.1" id="Layer_1" xmlns="http://www.w3.org/2000/svg" xmlns:xlink="http://www.w3.org/1999/xlink" x="0px" y="0px"
	 width="263.508px" height="88.474px" viewBox="0 0 263.508 88.474" enable-background="new 0 0 263.508 88.474"
	 xml:space="preserve">
<g>
	<g>
		<path fill="#ED1C24" d="M25.997,73.591l1.862,1.848l0.802,0.765l0.417,0.391l0.841,0.755l0.877,0.752l0.894,0.752l0.932,0.747
			l0.479,0.372l1.482,1.124l1.571,1.123l0.537,0.381l1.693,1.141l0.581,0.38l1.813,1.169l1.925,1.186l0.864,0.519l1.517-0.923
			l1.275-0.788l1.818-1.164l0.583-0.384l1.687-1.143l1.594-1.131l0.519-0.372l1.482-1.119l0.945-0.752l0.913-0.747l0.887-0.753
			l0.859-0.755l0.422-0.377l0.814-0.769l0.797-0.771l1.455-1.458l1.016-1.075l0.944-1.047l0.891-1.056l0.829-1.044l0.77-1.039
			l0.721-1.033l0.667-1.04l0.618-1.02l0.572-1.03l0.524-1.02l0.479-1.033l0.452-1.031l0.403-1.028l0.372-1.044l0.34-1.042
			l0.31-1.052l0.277-1.043l0.251-1.056l0.232-1.096l0.206-1.088l0.202-1.11l0.173-1.114l0.166-1.129l0.157-1.154l0.148-1.164
			l0.542-4.857l0.134-1.271l0.242-2.036l0.188-1.468l0.22-1.464l0.121-0.726l0.272-1.428l0.152-0.689l0.157-0.681l0.18-0.671
			l0.192-0.685l0.202-0.65l0.214-0.64l0.238-0.622l0.246-0.609l0.264-0.587l0.291-0.568l0.296-0.546l0.322-0.533l0.341-0.506
			l0.358-0.474l0.38-0.47l0.398-0.434l0.426-0.407l0.452-0.386l0.465-0.362l0.501-0.323l0.524-0.304l0.546-0.269l1.544-0.645
			L72.061,4.075H15.07L3.876,21.694l1.575,0.667l0.551,0.269l0.524,0.303l0.487,0.333l0.475,0.357l0.448,0.381l0.425,0.411
			l0.394,0.435l0.376,0.46l0.363,0.484L9.824,26.3l0.318,0.533l0.304,0.545l0.278,0.564l0.265,0.587l0.255,0.608l0.224,0.618
			l0.219,0.645l0.202,0.646l0.183,0.648l0.175,0.671l0.166,0.693l0.157,0.708l0.268,1.406l0.117,0.725l0.224,1.458l0.192,1.478
			l0.085,0.739l0.833,7.439l0.147,1.159l0.153,1.156l0.165,1.132l0.179,1.119l0.193,1.105l0.209,1.092l0.233,1.083l0.256,1.065
			l0.272,1.035l0.31,1.052l0.336,1.042l0.375,1.044l0.402,1.028l0.448,1.031l0.483,1.024l0.528,1.029l0.565,1.03l0.622,1.02
			l0.667,1.04l0.716,1.033l0.778,1.039l0.824,1.044l0.891,1.056l0.944,1.047L25.997,73.591z"/>
		<path fill="#FFFFFF" d="M43.566,87.646l-1.813-1.087l-1.276-0.797l-1.826-1.163l-0.586-0.386l-1.701-1.154l-1.602-1.133
			l-0.52-0.38l-1.499-1.132l-0.945-0.749l-0.921-0.756l-0.896-0.761l-0.868-0.76l-0.426-0.385l-0.811-0.761l-0.814-0.789
			l-1.477-1.485l-1.021-1.079l-0.962-1.07l-0.899-1.062l-0.838-1.061l-0.783-1.056l-0.725-1.048l-0.68-1.042l-0.627-1.043
			l-0.582-1.048l-0.537-1.047l-0.484-1.043l-0.452-1.047l-0.408-1.047l-0.381-1.056l-0.344-1.057l-0.313-1.065l-0.278-1.053
			l-0.255-1.079l-0.237-1.092l-0.211-1.105l-0.195-1.115l-0.176-1.125l-0.17-1.131l-0.152-1.155l-0.152-1.177l-0.542-4.857
			l-0.139-1.276l-0.236-2.027l-0.193-1.477l-0.107-0.716l0,0c0,0-0.099-0.671-0.107-0.725c-0.019-0.108-0.112-0.668-0.125-0.726
			l-0.26-1.383l-0.152-0.707c0,0-0.143-0.591-0.161-0.667c-0.022-0.089-0.152-0.591-0.174-0.667
			c-0.022-0.077-0.166-0.578-0.184-0.654l-0.188-0.627c0,0-0.197-0.545-0.224-0.631l-0.215-0.599l-0.241-0.583l-0.26-0.569
			l-0.273-0.551L9.65,27.101l-0.304-0.51l-0.323-0.479l-0.345-0.466l-0.357-0.434L7.94,24.796l-0.395-0.385l-0.425-0.364
			l-0.443-0.334l-0.465-0.313l-0.493-0.282l-0.514-0.255l-2.162-0.909L14.761,3.512H72.37l11.719,18.441l-2.158,0.909l-0.515,0.255
			l-0.492,0.278l-0.466,0.317l-0.448,0.334l-0.416,0.359l-0.403,0.385l-0.375,0.413l-0.368,0.442l-0.339,0.457l-0.323,0.488
			l-0.304,0.506l-0.286,0.523l-0.278,0.555l-0.259,0.569l-0.242,0.583c0,0-0.197,0.545-0.224,0.622l-0.21,0.608
			c0,0-0.179,0.564-0.201,0.646c-0.018,0.062-0.166,0.586-0.188,0.657c-0.019,0.085-0.148,0.582-0.17,0.663l-0.156,0.676
			l-0.148,0.681l-0.134,0.69c0,0-0.121,0.635-0.134,0.707c-0.014,0.081-0.117,0.692-0.117,0.724l-0.224,1.451l-0.188,1.455
			l-0.089,0.734l-0.143,1.293l-0.412,3.748l-0.269,2.404l-0.152,1.159l-0.153,1.155l-0.17,1.146l-0.179,1.123l-0.198,1.119
			l-0.214,1.106l-0.233,1.101l-0.259,1.074l-0.278,1.062l-0.313,1.061l-0.349,1.056l-0.376,1.057l-0.412,1.061L69.671,62.4
			l-0.492,1.042l-0.533,1.048l-0.582,1.047l-0.627,1.044l-0.68,1.043l-0.73,1.047l-0.784,1.052l-0.832,1.056l-0.91,1.066
			l-0.953,1.06l-1.02,1.083l-1.862,1.849l-0.812,0.783l-0.425,0.39l-0.852,0.761l-0.876,0.761l-0.909,0.757l-0.934,0.755
			l-0.485,0.376l-1.504,1.132l-1.566,1.128l-0.555,0.386l-0.546,0.38l-1.136,0.765l-0.591,0.386l-1.822,1.167l-1.934,1.191
			L43.566,87.646z M37.653,81.214l0.537,0.363l1.12,0.76l0.573,0.375l1.795,1.146l1.889,1.165l1.888-1.165l1.795-1.146l0.563-0.375
			l1.666-1.123l1.567-1.119l0.501-0.358l1.455-1.097l0.922-0.729l0.891-0.734l0.859-0.729l0.841-0.734l0.797-0.738l0.788-0.748
			l0.385-0.381l1.438-1.436l0.979-1.034l0.922-1.025l0.851-1.012l0.788-0.998l0.752-0.998l0.685-0.989l0.636-0.984l0.586-0.976
			l0.542-0.98l0.506-0.971l0.457-0.98l0.42-0.984l0.385-0.977l0.354-0.999l0.328-0.993l0.294-0.998l0.261-0.998l0.251-1.025
			l0.223-1.057l0.202-1.061l0.192-1.083l0.174-1.084l0.157-1.115l0.156-1.137l0.148-1.146l0.546-4.838l0.135-1.276l0.232-2.063
			l0.197-1.487c0-0.013,0.106-0.765,0.106-0.765l0.117-0.724l0.125-0.749c0-0.012,0.139-0.751,0.139-0.751l0.148-0.76l0.152-0.694
			c0-0.01,0.17-0.703,0.17-0.703c0-0.014,0.179-0.712,0.179-0.712l0.202-0.703c0.004-0.014,0.21-0.681,0.21-0.681
			c0.004-0.027,0.013-0.049,0.027-0.071l0.205-0.623c0.009-0.018,0.009-0.018,0.242-0.663c0.013-0.013,0.023-0.044,0.032-0.067
			l0.246-0.591c0.004-0.022,0.018-0.044,0.026-0.072l0.255-0.568c0.018-0.027,0.031-0.054,0.04-0.077l0.269-0.545
			c0.018-0.027,0.027-0.051,0.044-0.076l0.282-0.524c0.019-0.036,0.032-0.062,0.06-0.094l0.299-0.497
			c0.018-0.027,0.035-0.059,0.059-0.094l0.322-0.479c0.018-0.036,0.044-0.067,0.063-0.103l0.344-0.461
			c0.023-0.022,0.041-0.05,0.068-0.076l0.354-0.434c0.026-0.037,0.058-0.072,0.088-0.108l0.381-0.407
			c0.027-0.036,0.059-0.063,0.091-0.095l0.393-0.385c0.036-0.027,0.071-0.063,0.107-0.094l0.417-0.358
			c0.032-0.027,0.072-0.063,0.112-0.089l0.443-0.336c0.031-0.027,0.072-0.049,0.103-0.071l0.465-0.314
			c0.045-0.027,0.09-0.054,0.135-0.085l0.482-0.281c0.045-0.023,0.09-0.041,0.135-0.063l0.349-0.17L71.13,5.767H15.997L6.361,20.929
			l0.353,0.17c0.041,0.013,0.085,0.04,0.125,0.063l0.492,0.281c0.044,0.032,0.09,0.058,0.134,0.085l0.457,0.309
			c0.041,0.027,0.076,0.049,0.111,0.076l0.444,0.336c0.035,0.027,0.071,0.063,0.111,0.089l0.416,0.363
			c0.036,0.026,0.073,0.062,0.111,0.093l0.39,0.39c0.028,0.022,0.063,0.049,0.091,0.085l0.375,0.407
			c0.032,0.036,0.063,0.071,0.094,0.108l0.354,0.434c0.022,0.022,0.044,0.05,0.063,0.076l0.345,0.461
			c0.023,0.035,0.045,0.067,0.067,0.103l0.322,0.479c0.028,0.035,0.045,0.067,0.063,0.098l0.3,0.497
			c0.013,0.022,0.031,0.054,0.049,0.084l0.287,0.52c0.018,0.031,0.026,0.058,0.043,0.085l0.27,0.55
			c0.008,0.018,0.018,0.044,0.035,0.067l0.26,0.573c0.009,0.027,0.019,0.049,0.032,0.076l0.242,0.582
			c0.005,0.023,0.013,0.05,0.028,0.072l0.223,0.609c0.005,0.009,0.233,0.677,0.233,0.677c0.004,0.013,0.013,0.044,0.023,0.066
			l0.195,0.635c0.005,0.014,0.198,0.708,0.198,0.708c0.009,0.022,0.188,0.707,0.188,0.707c0,0.009,0.169,0.72,0.169,0.72
			c0,0.009,0.162,0.722,0.162,0.722l0.013,0.054l0.264,1.422l0,0l0.125,0.757l0,0l0.12,0.756l0.107,0.739
			c0.005,0.008,0.103,0.761,0.103,0.761l0.188,1.505l0.823,7.425l0.145,1.146l0.151,1.133l0.166,1.119l0.17,1.084l0.192,1.083
			l0.206,1.061l0.224,1.047l0.248,1.035l0.263,0.998l0.295,0.998l0.322,0.999L18.7,59.5l0.386,0.977l0.42,0.984l0.457,0.98
			l0.501,0.971l0.542,0.98l0.59,0.976l0.636,0.984l0.689,0.989l0.739,0.998l0.796,1.003l0.854,1.007l0.918,1.025l0.979,1.034
			l1.823,1.817l0.778,0.748l0.806,0.738l0.837,0.734l0.864,0.729l0.891,0.734l0.922,0.721l1.455,1.105l1.54,1.101L37.653,81.214z"/>
		<path fill-rule="evenodd" clip-rule="evenodd" fill="#FFFFFF" d="M58.163,58.936l-0.717-1.016l0.506-1.375l0.542,1.491
			L58.163,58.936L58.163,58.936z M57.205,60.521l0.403-1.093l1.262-0.439l-0.367,0.976l-0.627,0.188l0.354,0.555l-0.363,0.967
			L57.205,60.521L57.205,60.521z M58.252,62.405l1.441-3.89l1.114,0.42l-0.854,2.31l0.608,0.224l0.725-1.952l1.12,0.421l-0.72,1.942
			l0.711,0.269l0.895-2.399l1.115,0.416l-1.477,3.966L58.252,62.405L58.252,62.405z M55.593,66.998l0.841-1.415l2.592,1.522
			c0.175,0.099,0.336,0.166,0.475,0.193c0.135,0.022,0.26,0.004,0.373-0.054c0.111-0.063,0.214-0.175,0.313-0.336
			c0.143-0.237,0.179-0.448,0.107-0.627c-0.063-0.174-0.229-0.339-0.488-0.492l-2.601-1.522l0.823-1.419l2.462,1.446
			c0.354,0.197,0.625,0.425,0.833,0.663c0.206,0.241,0.331,0.497,0.384,0.761c0.054,0.263,0.04,0.55-0.036,0.845
			c-0.072,0.296-0.21,0.614-0.412,0.963c-0.198,0.327-0.408,0.609-0.636,0.829c-0.224,0.214-0.46,0.362-0.72,0.447
			c-0.255,0.085-0.542,0.094-0.846,0.041c-0.304-0.063-0.645-0.188-1.003-0.403L55.593,66.998L55.593,66.998z M51.681,70.936
			l1.19-1.133l1.173,1.227l1.127-1.073L54,68.729l1.19-1.133l3.46,3.621l-1.196,1.133l-1.337-1.406l-1.124,1.08l1.339,1.405
			l-1.196,1.124L51.681,70.936L51.681,70.936z M49.188,74.598c-0.112-0.198-0.238-0.331-0.381-0.403
			c-0.143-0.066-0.282-0.099-0.412-0.085c-0.125,0.013-0.242,0.045-0.34,0.089c-0.305,0.135-0.47,0.349-0.493,0.663
			c-0.021,0.31,0.05,0.654,0.215,1.039c0.188,0.417,0.398,0.699,0.636,0.851c0.241,0.143,0.51,0.152,0.806,0.027
			c0.452-0.202,0.595-0.578,0.442-1.128l1.445-0.63c0.126,0.375,0.153,0.748,0.099,1.114c-0.053,0.372-0.206,0.708-0.448,1.012
			c-0.241,0.3-0.572,0.546-0.994,0.72c-0.376,0.166-0.734,0.27-1.083,0.283c-0.346,0.019-0.681-0.026-0.985-0.143
			c-0.305-0.112-0.577-0.292-0.829-0.533c-0.237-0.25-0.443-0.555-0.604-0.909c-0.179-0.43-0.278-0.824-0.278-1.196
			c0-0.379,0.072-0.711,0.206-1.002c0.067-0.148,0.147-0.282,0.247-0.412c0.088-0.134,0.191-0.242,0.309-0.349
			c0.232-0.215,0.483-0.385,0.751-0.497c0.395-0.175,0.761-0.278,1.088-0.304c0.327-0.036,0.617,0.009,0.863,0.121
			c0.479,0.21,0.869,0.56,1.164,1.052L49.188,74.598L49.188,74.598z M41.771,79.834l1.463-0.013l0.014,1.02l-1.469,0.019
			L41.771,79.834L41.771,79.834z M42.577,75.118c-0.197-0.005-0.367,0.04-0.52,0.129c-0.148,0.098-0.268,0.255-0.362,0.465
			c-0.085,0.21-0.144,0.466-0.153,0.77c-0.013,0.224,0.005,0.426,0.04,0.609c0.045,0.174,0.099,0.332,0.189,0.457
			c0.161,0.246,0.395,0.385,0.702,0.397c0.327,0.01,0.587-0.106,0.752-0.362c0.086-0.124,0.148-0.268,0.202-0.428
			c0.044-0.158,0.075-0.336,0.084-0.528c0.01-0.22-0.004-0.422-0.03-0.596c-0.036-0.17-0.091-0.327-0.17-0.47
			C43.159,75.283,42.917,75.135,42.577,75.118L42.577,75.118L42.577,75.118z M42.63,73.896c0.563,0.022,1.038,0.161,1.423,0.416
			c0.385,0.25,0.667,0.583,0.841,0.989c0.095,0.202,0.161,0.403,0.207,0.622c0.045,0.22,0.062,0.435,0.054,0.65
			c-0.014,0.371-0.085,0.721-0.22,1.039c-0.121,0.321-0.299,0.604-0.533,0.841c-0.233,0.232-0.51,0.42-0.851,0.545
			c-0.335,0.125-0.711,0.184-1.127,0.17c-0.609-0.026-1.11-0.179-1.491-0.456c-0.38-0.282-0.657-0.622-0.819-1.038
			c-0.157-0.412-0.233-0.846-0.211-1.303c0.01-0.175,0.027-0.34,0.058-0.493c0.041-0.162,0.085-0.322,0.153-0.483
			c0.125-0.3,0.296-0.563,0.519-0.792c0.233-0.228,0.515-0.412,0.851-0.532c0.17-0.067,0.353-0.112,0.545-0.148
			C42.219,73.896,42.42,73.886,42.63,73.896L42.63,73.896L42.63,73.896z M35.456,70.994l1.415,0.836l-0.855,1.46l1.343,0.783
			l0.859-1.459l1.415,0.833l-2.525,4.305l-1.423-0.822l0.976-1.666l-1.339-0.788l-0.979,1.67l-1.423-0.833L35.456,70.994
			L35.456,70.994z M27.424,65.856l0.492,0.909l1.325-1.316L27.424,65.856L27.424,65.856z M25.258,58.462l-0.112-0.426l0.904-0.233
			l0.117,0.417l0.152-0.041l1.688-0.438l0.55,2.09c0.064,0.265,0.107,0.515,0.13,0.751c0.022,0.243,0.018,0.461-0.013,0.671
			c-0.019,0.211-0.076,0.412-0.161,0.587c-0.09,0.179-0.207,0.344-0.349,0.497c-0.063,0.072-0.144,0.139-0.242,0.215
			c-0.089,0.072-0.188,0.125-0.286,0.179c-0.202,0.112-0.439,0.206-0.712,0.277c-0.604,0.157-1.123,0.17-1.553,0.067
			c-0.43-0.117-0.783-0.335-1.047-0.684c-0.26-0.34-0.467-0.784-0.605-1.313l-0.541-2.081l1.862-0.483L25.258,58.462L25.258,58.462z
			 M25.684,60.077l-0.196,0.054l-0.73,0.193l0.089,0.335c0.041,0.179,0.107,0.318,0.188,0.447c0.095,0.12,0.198,0.211,0.328,0.282
			c0.125,0.062,0.281,0.094,0.46,0.094c0.18,0,0.386-0.022,0.618-0.085l0.045-0.013l0.04-0.013c0.036-0.004,0.076-0.018,0.116-0.031
			c0.045-0.014,0.081-0.027,0.116-0.045c0.099-0.036,0.179-0.071,0.247-0.108c0.135-0.075,0.238-0.17,0.31-0.277
			c0.035-0.054,0.066-0.116,0.085-0.179c0.022-0.063,0.026-0.139,0.031-0.219c0-0.041,0-0.072,0-0.107
			c-0.005-0.031-0.009-0.081-0.018-0.157c-0.018-0.103-0.035-0.211-0.063-0.314l-0.072-0.269l-0.519,0.139l-0.169,0.036l0.169,0.649
			l-0.908,0.232L25.684,60.077L25.684,60.077z M32.344,67.391l1.093,1.223l-3.747,3.325l-1.088-1.226L32.344,67.391L32.344,67.391z
			 M25.465,66.51l0.693,1.289l-0.914,0.493l-0.688-1.298L25.465,66.51L25.465,66.51z M30.169,64.012l0.806,1.458l-3.541,3.966
			l-0.779-1.428l0.484-0.501l-0.779-1.423l-0.676,0.152l-0.766-1.397L30.169,64.012L30.169,64.012z"/>
		<path fill="#ED1C24" d="M43.566,88.474l-2.18-1.316l-1.281-0.797l-1.835-1.171l-0.591-0.39l-1.71-1.155l-1.083-0.766l-1.047-0.761
			l-1.518-1.141l-0.963-0.761l-0.934-0.766l-0.901-0.765l-0.882-0.774l-0.421-0.381l-0.837-0.778l-0.814-0.797l-1.491-1.486
			l-1.03-1.1l-0.971-1.081l-0.918-1.078L21.31,70.13l-0.797-1.07l-0.743-1.069l-0.685-1.061l-0.645-1.065l-0.591-1.07l-0.546-1.064
			l-0.497-1.065l-0.461-1.066l-0.421-1.07l-0.384-1.083l-0.35-1.074l-0.318-1.083l-0.282-1.057l-0.265-1.11l-0.233-1.091
			l-0.219-1.116l-0.196-1.132l-0.18-1.137l-0.165-1.15l-0.156-1.16l-0.152-1.177l-0.547-4.875l-0.282-2.57l-0.184-1.458l-0.095-0.72
			L11.7,36.098l-0.116-0.711l-0.255-1.375l-0.157-0.671l-0.151-0.667l-0.17-0.644l-0.179-0.64l-0.188-0.613l-0.211-0.604
			l-0.219-0.581l-0.229-0.565L9.578,28.48L9.31,27.951l-0.27-0.501L8.75,26.967L8.441,26.51l-0.313-0.43l-0.341-0.412l-0.349-0.381
			L7.066,24.93l-0.389-0.336l-0.412-0.309l-0.431-0.287l-0.447-0.26L4.91,23.502L2,22.276L14.377,2.804h58.378l12.377,19.472
			l-2.909,1.227l-0.479,0.237l-0.448,0.26l-0.429,0.287l-0.413,0.309l-0.389,0.336l-0.372,0.357l-0.348,0.381l-0.336,0.412
			l-0.327,0.43l-0.305,0.458L78.09,27.45l-0.272,0.501l-0.264,0.529l-0.242,0.545l-0.233,0.565l-0.214,0.581l-0.215,0.604
			l-0.188,0.613l-0.188,0.654l-0.166,0.649l-0.157,0.662l-0.148,0.658L75.544,35.4l-0.117,0.708l-0.219,1.436l-0.189,1.451
			l-0.088,0.729l-0.824,7.43l-0.152,1.178l-0.152,1.16l-0.169,1.15l-0.185,1.133l-0.192,1.127l-0.221,1.115L72.8,55.14l-0.26,1.083
			l-0.287,1.083l-0.323,1.084l-0.345,1.078l-0.389,1.075l-0.421,1.079l-0.461,1.062l-0.5,1.07l-0.547,1.064l-0.59,1.066l-0.64,1.065
			l-0.694,1.061l-0.739,1.07l-0.797,1.07l-0.851,1.074l-0.917,1.079l-0.972,1.083l-1.034,1.097l-1.875,1.862l-0.823,0.788
			l-0.421,0.394L58.055,78.3l-0.891,0.77l-0.917,0.761l-0.949,0.757l-0.483,0.384l-0.998,0.762l-0.51,0.384l-1.589,1.142
			l-0.551,0.381l-1.709,1.15l-0.591,0.399l-1.831,1.168l-1.947,1.2L43.566,88.474z M25.997,73.591l1.862,1.848l0.802,0.765
			l0.417,0.391l0.841,0.755l0.877,0.752l0.894,0.752l0.932,0.747l0.479,0.372l1.482,1.124l1.571,1.123l0.537,0.381l1.693,1.141
			l0.581,0.38l1.813,1.169l1.925,1.186l0.864,0.519l1.517-0.923l1.275-0.788l1.818-1.164l0.583-0.384l1.687-1.143l1.594-1.131
			l0.519-0.372l1.482-1.119l0.945-0.752l0.913-0.747l0.887-0.753l0.859-0.755l0.422-0.377l0.814-0.769l0.797-0.771l1.455-1.458
			l1.016-1.075l0.944-1.047l0.891-1.056l0.829-1.044l0.77-1.039l0.721-1.033l0.667-1.04l0.618-1.02l0.572-1.03l0.524-1.02
			l0.479-1.033l0.452-1.031l0.403-1.028l0.372-1.044l0.34-1.042l0.31-1.052l0.277-1.043l0.251-1.056l0.232-1.096l0.206-1.088
			l0.202-1.11l0.173-1.114l0.166-1.129l0.157-1.154l0.148-1.164l0.542-4.857l0.134-1.271l0.242-2.036l0.188-1.468l0.22-1.464
			l0.121-0.726l0.272-1.428l0.152-0.689l0.157-0.681l0.18-0.671l0.192-0.685l0.202-0.65l0.214-0.64l0.238-0.622l0.246-0.609
			l0.264-0.587l0.291-0.568l0.296-0.546l0.322-0.533l0.341-0.506l0.358-0.474l0.38-0.47l0.398-0.434l0.426-0.407l0.452-0.386
			l0.465-0.362l0.501-0.323l0.524-0.304l0.546-0.269l1.544-0.645L72.061,4.075H15.07L3.876,21.694l1.575,0.667l0.551,0.269
			l0.524,0.303l0.487,0.333l0.475,0.357l0.448,0.381l0.425,0.411l0.394,0.435l0.376,0.46l0.363,0.484L9.824,26.3l0.318,0.533
			l0.304,0.545l0.278,0.564l0.265,0.587l0.255,0.608l0.224,0.618l0.219,0.645l0.202,0.646l0.183,0.648l0.175,0.671l0.166,0.693
			l0.157,0.708l0.268,1.406l0.117,0.725l0.224,1.458l0.192,1.478l0.085,0.739l0.833,7.439l0.147,1.159l0.153,1.156l0.165,1.132
			l0.179,1.119l0.193,1.105l0.209,1.092l0.233,1.083l0.256,1.065l0.272,1.035l0.31,1.052l0.336,1.042l0.375,1.044l0.402,1.028
			l0.448,1.031l0.483,1.024l0.528,1.029l0.565,1.03l0.622,1.02l0.667,1.04l0.716,1.033l0.778,1.039l0.824,1.044l0.891,1.056
			l0.944,1.047L25.997,73.591z"/>
		<g>
			<path fill="#FFFFFF" d="M24.206,22.651c0,0,2.162-4.091,5.837,0c0,0,1.965-1.092,2.426,0.498c0,0,0.161,1.042-0.932,1.252
				c-1.101,0.201-1.369,0.188-1.343,0.466c0.014,0.287,0.582,0.402,1.021,0.402c0.43,0,0.735-0.022,1.097,0.568
				c0.358,0.582,0.416,0.757,0.891,0.733c0.474-0.017,0.644,0.046,0.944-0.246c0.304-0.282,1.875-2.555,4.337-1.039
				c0,0,1.271-1.687,2.918-0.438c0,0,0.752-2.4,4.315-2.324c3.559,0.072,5.018,3.25,8.066,3.156c0,0,1.841-0.014,2.534-0.716
				c0,0-0.188-3.769,3.415-3.886c3.6-0.106,4.982,2.141,5.036,3.904c0.054,1.758-0.568,4.257-4.677,5.885
				c0,0,0.532,3.976-3.827,3.945c0,0,1.289,2.689,3.885,2.484c0,0-3.526,2.457-7.385,0.447c0,0-0.341,3.411-2.086,4.849
				c-1.736,1.44-3.576,2.667-9.033,4.377c0,0-3.007,0.778-2.534,1.951c0.471,1.168,2.238,1.142,2.234-0.363
				c0,0,2.842,1.477,0.393,3.675c0,0,0.174,3.142-2.985,2.023c0,0-0.779,0.644-1.482,0c0,0,0.041,4.038,4.342,4.243
				c0,0,2.082,0.022,2.216-1.038c0.125-1.066-1.218-1.558-1.933-1.268c0,0,0.107-1.477,1.723-1.24
				c1.606,0.251,1.951,1.061,1.951,1.061s0.313-1.128-1.321-2.287c0,0-1.45-1.061-1.409-3.523c0.04-2.457,1.293-3.5,2.614-4.225
				c1.33-0.721,1.969-1.302,5.627-1.437c3.652-0.134,3.993-1.23,3.975-2.255c-0.018-1.016-2.028-1.589-2.919-1.228
				c0,0,0.09-1.861,2.14-2.193c2.05-0.345,4.396,0.869,4.565,1.701c0,0,2.027,0.815,1.876,2.31
				c-0.152,1.494-1.669,1.782-1.669,1.782s0.385,1.154-0.493,1.624c0,0,1.459,1.799-0.224,3.129c0,0,0.434,2.421-2.202,2.193
				c0,0-0.618,2.082-3.103,0.909c0,0-2.726,1.759-3.823-1.835c0,0,1.026,0.698,1.401,0.265c0.375-0.434,0.322-1.138-0.533-1.267
				c-0.854-0.135-1.875,0.393-1.097,1.513c0.774,1.114,2.462,2.309,2.498,4.319c0.035,2.004,0.035,4.145-1.93,6.177
				c-1.965,2.02-3.541,2.627-3.541,2.627s0.704,2.004-1.079,2.14c0,0-0.04,1.953-2.636,1.459c0,0-1.718,2.878-6.079,1.021
				c0,0,2.333-0.281,2.355-2.497c0.018-2.216-3.417-2.556-4.226-3.071c-0.815-0.506-2.122-1.666-1.518-3.219
				c0,0-3.161-2.843-1.496-10.72c0,0-3.765-0.587-1.946-4.07c0,0-1.63-1.5-0.287-3.974c1.343-2.48,4.033-1.079,4.033-1.079
				s2.593-1.289,3.506,0.416c0,0,0.626,0.998,0.133,1.554c0,0-2.466-0.189-2.425,0.868c0.035,1.065,0.643,1.137,2.122,0.569
				c1.477-0.569,7.533-2.744,8.271-3.143c0.739-0.398,2.73-1.347,2.632-3.501c0,0-1.343,0.167-1.647-0.214
				c0,0-0.067,0.474,0.17,0.636c0.232,0.157,0.456,0.585,0.353,0.72c0,0-1.262-1.051-2.037-1.092
				c-0.778-0.032-1.88-0.453-1.898-0.717c0,0-0.286,0.568,0.058,1.003c0,0,0.246,0.55,0.13,0.739c0,0-1.187-1.478-2.399-1.813
				c-1.213-0.34-2.328-1.066-2.22-3.017c0,0,0.214-0.568-0.828-1.079c-1.043-0.51-1.348-1.459-1.062-2.551
				c0,0-0.456-0.954-1.741-1.293c-1.29-0.34-1.616,0.703-3.071,0.725c-1.455,0.018-2.233-1.442-2.931-1.979
				c-0.708-0.52-0.528-0.237-1.97-0.255c0,0-2.386-0.117-3.107-1.821C22.452,23.359,23.791,22.728,24.206,22.651z"/>
			<path fill="#EC2227" d="M39.649,29.841c-0.725,0-1.826-0.26-2.14-0.986h-0.027c-0.313,0-1.159-0.04-1.723-0.401
				c-0.493-0.327-1.827-1.031-3.505-0.641c-1.271,0.296-1.387,0.242-1.916-0.269c-0.144-0.139-0.322-0.308-0.573-0.519
				c-0.224-0.184-0.421-0.354-0.59-0.497c-0.694-0.596-0.981-0.846-1.442-0.739c-0.551,0.134-2.905,0.349-3.482-1.022
				c-0.054-0.07-0.224-0.361-0.094-0.648c0.112-0.264,0.425-0.425,0.927-0.488c0.08-0.04,0.246-0.156,0.278-0.281
				c0.008-0.045,0.003-0.081-0.023-0.121l-0.233-0.386l0.022-0.058c0.009-0.023,0.196-0.515,0.793-0.771
				c0.585-0.246,1.338-0.173,2.237,0.206l0.022,0.019c0.049,0.027,1.168,0.748,1.276,1.715l0.004,0.04l-0.018,0.031
				c-0.009,0.014-0.663,1.361,0.201,1.898c0.774,0.479,1.097,0.443,1.41,0.417c0.072-0.004,0.139-0.017,0.215-0.017h0.099
				l0.036,0.094c0.161,0.505,0.438,1.068,0.617,1.172c0.06-0.014,0.113-0.022,0.176-0.041c1.78-0.421,3.19,0.336,3.71,0.672
				c0.618,0.403,1.684,0.357,1.684,0.357l0.111-0.005l0.031,0.099c0.242,0.779,1.71,0.989,2.266,0.864
				c0.582-0.122,1.638-0.198,1.682-0.202l0.019,0.273c0,0-1.079,0.081-1.638,0.202C39.949,29.831,39.806,29.841,39.649,29.841z
				 M27.939,25.498c0.452,0,0.807,0.296,1.415,0.82c0.169,0.147,0.357,0.313,0.581,0.497c0.26,0.214,0.447,0.389,0.591,0.537
				c0.385,0.376,0.466,0.448,1.177,0.304c-0.246-0.294-0.442-0.806-0.528-1.051c-0.03,0-0.067,0.005-0.067,0.005
				c-0.367,0.035-0.752,0.071-1.607-0.457c-0.841-0.52-0.586-1.646-0.322-2.207c-0.112-0.774-1.035-1.41-1.133-1.473
				c-0.824-0.349-1.504-0.42-2.023-0.201c-0.376,0.161-0.551,0.43-0.614,0.55l0.166,0.27c0.063,0.107,0.081,0.214,0.054,0.332
				c-0.076,0.272-0.403,0.442-0.438,0.465L25.173,23.9h-0.027c-0.412,0.049-0.671,0.157-0.743,0.322
				c-0.076,0.179,0.08,0.394,0.08,0.394l0.019,0.032c0.457,1.123,2.484,1.034,3.174,0.877C27.77,25.508,27.859,25.498,27.939,25.498
				z"/>
			<path fill="#EC2227" d="M47.309,28.762c-0.095,0-0.188-0.005-0.288-0.018c-0.975-0.135-1.628-0.882-1.826-1.142
				c-1.49,0.457-2.18-0.403-2.368-0.694l-0.018,0.004c-0.233,0.046-0.43,0.081-1.791-0.617c-0.425-0.215-0.833-0.265-1.19-0.148
				c-0.617,0.21-0.931,0.837-0.939,0.846l-0.108,0.224l-0.126-0.21c-0.178-0.287-1.436-0.685-2.135-0.519
				c-0.327,0.071-0.335,0.237-0.34,0.291c-0.004,0.07,0.013,0.133,0.076,0.196c0.38,0.429,1.897,0.555,2.453,0.568L38.7,27.813
				c-0.215-0.004-2.121-0.066-2.649-0.658c-0.107-0.12-0.156-0.25-0.143-0.397c0.018-0.157,0.103-0.434,0.55-0.537
				c0.645-0.148,1.832,0.125,2.288,0.492c0.148-0.233,0.479-0.644,0.998-0.819c0.434-0.148,0.904-0.094,1.401,0.161
				c1.281,0.659,1.446,0.624,1.616,0.591c0.04-0.004,0.076-0.013,0.129-0.018l0.09-0.004l0.04,0.084
				c0.023,0.05,0.583,1.15,2.184,0.609l0.095-0.032l0.062,0.085c0.005,0.014,0.671,0.967,1.697,1.106
				c0.636,0.08,1.279-0.161,1.928-0.72l0.162-0.139l0.246,0.971l-0.264,0.067l-0.144-0.549
				C48.436,28.538,47.868,28.762,47.309,28.762z"/>
			<path fill="#EC2227" d="M43.964,36.209l-0.313-0.34c-0.608-0.658-2.336-2.372-3.079-2.377c-0.085,0.005-0.144,0.023-0.188,0.072
				c-0.587,0.618,0.448,1.826,0.461,1.839l0.281,0.328l-0.42-0.108c-1.248-0.313-1.692-1.293-1.692-2.117
				c0-0.729,0-1.741-1.096-1.911c-0.363-0.054-0.622-0.216-0.774-0.475c-0.309-0.529-0.045-1.267-0.037-1.293l0.068-0.184
				l0.148,0.121c0,0,0.541,0.448,1.137,0.676c0.59,0.233,2.22,0.089,2.22,0.089c0.035,0,1.543,0.009,2.121-0.563
				c0.143-0.147,0.206-0.305,0.206-0.492c0-0.3-0.089-0.52-0.277-0.685c-0.39-0.335-1.204-0.417-2.48-0.247
				c-0.586,0.085-1.03-0.004-1.333-0.254c-0.34-0.283-0.358-0.667-0.358-0.69l0.273-0.004c0.004,0.009,0.018,0.287,0.265,0.489
				c0.241,0.201,0.617,0.269,1.114,0.196c1.383-0.196,2.232-0.094,2.703,0.305c0.242,0.214,0.372,0.514,0.372,0.891
				c0,0.259-0.103,0.492-0.296,0.68c-0.653,0.653-2.229,0.64-2.287,0.644c-0.058,0.009-1.697,0.153-2.342-0.102
				c-0.438-0.17-0.832-0.444-1.046-0.596c-0.054,0.229-0.099,0.609,0.062,0.882c0.112,0.184,0.309,0.3,0.582,0.345
				c1.325,0.21,1.325,1.441,1.325,2.179c0,0.309,0.089,1.267,1.083,1.719c-0.304-0.47-0.708-1.292-0.18-1.849
				c0.1-0.107,0.226-0.156,0.382-0.156h0.005c0.823,0.004,2.363,1.513,3.008,2.17c-0.018-0.371,0.026-0.935,0.322-1.289
				c0.188-0.216,0.447-0.318,0.76-0.318l-0.003,0.272c-0.234,0-0.417,0.068-0.551,0.226c-0.394,0.46-0.224,1.463-0.224,1.477
				L43.964,36.209z"/>
			<path fill="#EC2227" d="M47.161,35.721L47.161,35.721c-0.9,0-2.69-0.765-2.767-2.533c-0.036-0.726,0.398-1.392,1.186-1.817
				c0.797-0.443,1.746-0.533,2.377-0.25c-0.041-0.64,0.053-2.234,1.857-2.958c-0.247-0.469-0.958-1.105-1.034-1.177
				c-0.886-0.591-1.818-0.345-2.717-0.121c-0.863,0.219-1.683,0.429-2.413-0.081c-0.631-0.447-0.909-1.061-0.734-1.639
				c0.219-0.778,1.146-1.292,2.417-1.356c1.495-0.072,3.088,0.761,4.637,1.571c0.891,0.475,1.818,0.958,2.686,1.235
				c2.256,0.725,4.665-0.927,4.69-0.944l0.153-0.112l0.053,0.184c0.01,0.027,0.25,0.77,1.482,0.985
				c0.56,0.089,1.597,0.175,2.243-0.358c0.376-0.304,0.572-0.783,0.59-1.41c0.01-0.389-0.103-0.685-0.353-0.904
				c-0.605-0.509-1.777-0.406-2.14-0.353v0.532c0.162-0.054,0.354-0.076,0.465-0.085c0.783-0.076,1.303,0.215,1.411,0.788
				c0.081,0.439-0.095,0.837-0.483,1.106c-0.631,0.434-1.607,0.407-2.376-0.072c-0.596-0.372-0.896-1.083-0.775-1.862
				c0.117-0.72,0.635-1.589,1.763-1.871c1.142-0.282,2.489,0.076,3.357,0.9c0.56,0.528,1.168,1.481,0.878,3.007
				c-0.232,1.236-1.164,2.368-2.69,3.268c-0.905,0.537-1.755,0.846-2.099,0.958c0.304,0.657,0.332,1.965-1.365,3.08
				c-0.949,0.623-2.085,0.649-3.281,0.071c-0.726-0.349-1.262-0.805-1.451-0.98c-1.338,0.788-3.017,0.551-3.71-0.528
				c-0.309-0.475-0.394-1.042-0.246-1.603c0.179-0.653,0.662-1.24,1.298-1.572c0.627-0.322,1.119-0.258,1.424-0.143
				c0.457,0.183,0.738,0.555,0.85,0.846c0.121,0.318-0.009,0.747-0.322,1.047c-0.314,0.295-0.726,0.381-1.093,0.219
				c-0.268-0.115-0.407-0.264-0.412-0.434c0-0.22,0.215-0.372,0.335-0.442l0.041-0.376c-0.31-0.005-0.596,0.112-0.752,0.322
				c-0.174,0.241-0.17,0.582,0.018,0.954c0.224,0.452,1.133,0.653,1.871,0.407c0.34-0.107,1.129-0.488,0.94-1.593
				c-0.089-0.524-0.321-0.909-0.698-1.146c-0.783-0.506-1.942-0.202-1.942-0.202c-2.52,0.717-2.094,2.963-2.068,3.061l0.063,0.336
				l-0.278-0.196c-0.524-0.368-1.527-0.314-2.328,0.124c-0.698,0.38-1.083,0.954-1.057,1.572c0.01,0.179,0.037,0.331,0.072,0.487
				l0,0c0.018,0.054,0.435,1.388,2.346,1.093c0.527-0.085,0.885-0.353,0.998-0.747c0.104-0.363-0.035-0.766-0.345-1.017
				c-0.367-0.305-0.904-0.344-1.491-0.117l0.353,0.287c0.154-0.054,0.471-0.135,0.717,0c0.143,0.072,0.229,0.202,0.269,0.376
				c0.036,0.192,0.072,0.47-0.107,0.658c-0.161,0.173-0.443,0.223-0.917,0.161c-0.385-0.045-0.899-0.185-1.19-0.569
				c-0.179-0.232-0.248-0.514-0.197-0.832c0.058-0.425,0.264-0.767,0.577-0.999c0.399-0.283,0.958-0.372,1.63-0.256
				c1.414,0.251,2.138,1.361,2.022,2.297C49.263,35.028,48.369,35.721,47.161,35.721z M45.638,34.912
				c0.51,0.363,1.115,0.542,1.522,0.542l0,0c1.083,0,1.853-0.586,1.969-1.495c0.094-0.796-0.55-1.764-1.804-1.987
				c-0.595-0.104-1.087-0.035-1.419,0.21c-0.259,0.183-0.42,0.466-0.47,0.814c-0.041,0.247,0.013,0.457,0.14,0.627
				c0.187,0.241,0.545,0.407,1.015,0.47c0.363,0.044,0.592,0.018,0.685-0.081c0.063-0.072,0.076-0.206,0.036-0.42
				c-0.022-0.094-0.063-0.162-0.125-0.193c-0.17-0.09-0.465,0.005-0.564,0.041l-0.072,0.035l-0.819-0.663l0.192-0.094
				c0.762-0.376,1.487-0.354,1.979,0.059c0.394,0.326,0.564,0.837,0.439,1.302c-0.139,0.501-0.583,0.846-1.218,0.945
				C46.488,35.123,46.005,35.051,45.638,34.912z M52.765,32.182l0.076,0.071c0.022,0.023,2.372,2.328,4.462,0.949
				c2.077-1.365,1.254-2.802,1.219-2.865l-0.095-0.157l0.175-0.048c0.036-0.009,4.217-1.254,4.745-4.056
				c0.269-1.41-0.287-2.278-0.797-2.763c-0.787-0.747-2.067-1.092-3.106-0.823c-0.994,0.237-1.455,1.012-1.558,1.638
				c-0.104,0.667,0.143,1.276,0.653,1.594c0.751,0.471,1.621,0.394,2.078,0.072c0.294-0.206,0.43-0.492,0.366-0.819
				c-0.044-0.233-0.166-0.385-0.366-0.479c-0.475-0.224-1.209-0.022-1.294,0.026c0.022-0.013,0.054-0.048,0.054-0.107h-0.273v-0.962
				l0.112-0.022c0.068-0.014,1.669-0.291,2.476,0.403c0.313,0.269,0.464,0.645,0.452,1.119c-0.023,0.707-0.255,1.253-0.693,1.607
				c-0.69,0.568-1.715,0.541-2.462,0.416c-1.057-0.179-1.477-0.733-1.625-1.011c-0.56,0.354-2.7,1.566-4.79,0.891
				c-0.891-0.283-1.827-0.779-2.73-1.254c-1.509-0.795-3.071-1.615-4.494-1.543c-1.375,0.067-2.028,0.649-2.176,1.159
				c-0.138,0.466,0.094,0.958,0.64,1.339c0.623,0.443,1.378,0.25,2.185,0.044c0.913-0.233,1.951-0.497,2.945,0.166l0.008,0.014
				c0.036,0.031,0.847,0.743,1.124,1.289c0.059-0.018,0.112-0.036,0.17-0.058c0.058-0.009,1.29-0.328,2.179,0.237
				c0.439,0.282,0.712,0.73,0.815,1.333c0.156,0.913-0.27,1.621-1.129,1.907c-0.877,0.282-1.907,0.032-2.197-0.555
				c-0.229-0.47-0.229-0.904,0.004-1.226c0.242-0.327,0.69-0.498,1.146-0.431l0.125,0.023l-0.076,0.796l-0.072,0.027
				c-0.116,0.053-0.25,0.165-0.25,0.228c0.004,0.035,0.068,0.107,0.25,0.193c0.381,0.165,0.686-0.067,0.793-0.175
				c0.232-0.219,0.34-0.532,0.255-0.751c-0.09-0.237-0.318-0.538-0.695-0.681c-0.357-0.138-0.77-0.093-1.2,0.129
				c-0.568,0.292-1.006,0.816-1.163,1.397c-0.125,0.489-0.054,0.967,0.21,1.375c0.64,0.994,2.208,1.172,3.433,0.397L52.765,32.182z"
				/>
			<path fill="#EC2227" d="M44.762,63.649l-0.09-0.076c-0.004-0.009-0.542-0.465-1.298-0.465c-0.439,0-0.877,0.162-1.29,0.475
				l-0.044,0.03l-0.063,0.01c0,0-0.08,0.003-0.228,0.003c-0.829,0-3.653-0.117-5.116-1.629l-0.076-0.081l0.03-0.107
				c0-0.008,0.345-1.221-0.143-1.867c-0.206-0.268-0.519-0.402-0.976-0.402c-0.304,0-0.663,0.063-1.066,0.184l-0.111,0.031
				l-0.081-0.076c-0.13-0.129-3.138-3.227-2.02-9.266c0.868-4.686,5.027-6.033,8.698-7.223c1.177-0.381,2.287-0.739,3.28-1.183
				c4.387-2,4.517-4.49,4.226-6.199l-0.027-0.162l0.161-0.049c0.054-0.017,1.308-0.447,1.056-2.331l-0.094-0.689l0.425,0.545
				c0,0,0.274,0.327,0.681,0.327c0.152,0,0.309-0.041,0.466-0.13l0.223-0.121l0.054,0.242c0.037,0.175,0.887,4.086-0.233,6.563
				c-1.091,2.399-2.68,3.965-7.954,5.379c-5.211,1.396-7.766,4.333-7.207,8.276c0.613,4.285,2.193,5.878,5.832,5.878
				c0.278,0,0.564-0.014,0.859-0.027c2.668-0.17,3.559-1.554,3.85-2.354c0.431-1.191,0.117-2.601-0.761-3.429
				c-0.931-0.882-1.934-2.516-1.665-4.194c0.215-1.338,1.191-2.448,2.825-3.222c1.678-0.79,3.259-0.806,4.651-0.816
				c2.104-0.021,3.621-0.04,4.489-2.51c0.032-0.188,0.322-2.18-1.893-2.905l-0.779-0.255l0.81-0.112c0,0,0.256-0.032,0.631-0.032
				c0.917,0,2.561,0.206,3.303,1.615c0.256,0.036,0.896,0.184,1.236,0.645c0.206,0.268,0.268,0.601,0.196,0.972
				c-0.157,0.756-0.8,1.186-1.772,1.186h-0.036c0.152,0.371,0.336,1.012,0.086,1.472c-0.162,0.305-0.476,0.484-0.922,0.529
				c-0.632,0.018-1.33,0.183-1.348,0.398l-0.013,0.138l-0.13,0.032c-0.089,0.023-2.014,0.487-3.8,0.604
				c1.388,0.448,3.331,1.29,3.487,2.535c0.063,0.188,0.345,1.181-0.009,1.696c-0.126,0.184-0.322,0.291-0.573,0.304
				c-0.743,0.04-1.315-0.309-1.589-0.518c-0.193,0.254-0.585,0.671-1.074,0.671c-0.121,0-0.236-0.022-0.344-0.072l-0.233-0.094
				l0.161-0.197c0-0.009,0.797-0.988,0.551-1.809c-0.13-0.438-0.541-0.76-1.222-0.966c-0.327-0.108-0.654-0.157-0.962-0.157
				c-0.882,0-1.603,0.422-1.893,1.093c-0.35,0.819-0.01,1.857,0.93,2.843c1.389,1.441,2.001,3.634,1.567,5.586
				c-0.376,1.656-1.629,3.939-5.523,5.421L44.762,63.649z M36.977,61.805c1.383,1.338,3.997,1.441,4.772,1.441
				c0.067,0,0.121,0,0.156,0c0.466-0.349,0.963-0.519,1.469-0.519c0.716,0,1.253,0.335,1.458,0.493
				c3.658-1.438,4.844-3.568,5.184-5.117c0.416-1.831-0.162-3.89-1.468-5.246c-1.048-1.092-1.415-2.283-0.999-3.25
				c0.346-0.814,1.204-1.321,2.238-1.321c0.346,0,0.712,0.059,1.074,0.166c0.811,0.25,1.303,0.663,1.473,1.227
				c0.224,0.729-0.188,1.509-0.438,1.902c0.367-0.044,0.712-0.492,0.819-0.667l0.125-0.21l0.17,0.169c0,0,0.613,0.595,1.472,0.551
				c0.126-0.004,0.215-0.05,0.278-0.138c0.224-0.323,0.035-1.125-0.046-1.384l-0.003-0.031c-0.157-1.379-3.372-2.354-4.603-2.615
				l0.059-0.375c0.21,0.022,0.443,0.036,0.693,0.036c1.679,0,3.832-0.475,4.338-0.596c0.224-0.538,1.41-0.595,1.661-0.601
				c0.309-0.035,0.515-0.138,0.613-0.326c0.224-0.413-0.085-1.164-0.214-1.419l-0.179-0.331l0.372,0.053
				c0,0,0.125,0.022,0.309,0.022c0.555,0,1.249-0.152,1.397-0.881c0.053-0.269,0.013-0.488-0.126-0.677
				c-0.269-0.362-0.859-0.492-1.069-0.515l-0.108-0.005L57.81,41.55c-0.578-1.195-1.92-1.459-2.798-1.495
				c1.746,1.034,1.387,2.99,1.387,3.013l-0.008,0.026c-0.958,2.744-2.759,2.758-4.844,2.78c-1.36,0.009-2.9,0.026-4.499,0.783
				c-1.539,0.719-2.412,1.705-2.609,2.927c-0.246,1.545,0.68,3.044,1.549,3.863c0.985,0.927,1.334,2.502,0.859,3.832
				c-0.322,0.887-1.298,2.417-4.181,2.605c-0.305,0.022-0.599,0.032-0.887,0.032c-4.413,0-5.675-2.48-6.208-6.205
				c-0.595-4.154,2.063-7.243,7.489-8.697c5.156-1.388,6.643-2.825,7.699-5.171c0.927-2.031,0.421-5.214,0.255-6.087
				c-0.138,0.049-0.278,0.068-0.417,0.068c-0.241,0-0.447-0.068-0.599-0.157c0.026,1.464-0.843,2.046-1.2,2.224
				c0.187,1.182,0.469,4.217-4.472,6.455c-1.016,0.462-2.136,0.82-3.322,1.201c-3.747,1.217-7.618,2.47-8.446,6.943
				c-0.977,5.308,1.391,8.316,1.848,8.845c1.124-0.318,1.917-0.184,2.341,0.384C37.259,60.39,37.062,61.46,36.977,61.805z"/>
			<path fill-rule="evenodd" clip-rule="evenodd" fill="#EC2227" d="M45.75,27.339c0,0,1.428,0.966,2.336,0l0.529,0.394
				C48.615,27.733,46.802,28.838,45.75,27.339z"/>
			<path fill-rule="evenodd" clip-rule="evenodd" fill="#EC2227" d="M52.254,33.336l0.358-0.228c0,0,0.868,0.984,1.817,1.02
				c0,0,0.757,2.94,2.122,3.066C56.551,37.195,53.257,38.202,52.254,33.336z"/>
			<path fill-rule="evenodd" clip-rule="evenodd" fill="#EC2227" d="M53.186,47.423c0,0,1.378-0.018,1.889-0.264
				c0,0-0.188,1.666,1.347,1.612c0,0,0.944,0.077,0.984-0.806c0.032-0.881-0.908-1.164-1.375-0.519c0,0-0.16,0.684,0.443,0.596
				c0,0-0.183-0.408,0.162-0.453c0.292-0.041,0.389,0.255,0.265,0.457c-0.126,0.21-0.412,0.362-0.958,0.122
				c-0.542-0.232-0.564-1.411,0.457-1.576c1.021-0.166,1.53,0.645,1.468,1.213c-0.063,0.568-0.385,1.123-1.074,1.249
				c0,0,0.466,0.855-0.188,1.177c-0.662,0.309-1.011,0.063-1.37-1.048C54.886,48.067,53.445,47.459,53.186,47.423z"/>
			<path fill-rule="evenodd" clip-rule="evenodd" fill="#EC2227" d="M41.466,50.566c-1.199,0.998-2.613-0.162-2.613-0.162h-0.037
				c0.326,0.264,0.944,0.792,0.944,1.463c0,0.672-0.514,0.792-0.944,0.829c-0.43,0.04-1.128,0.013-1.164-0.59
				c-0.027-0.417,0.296-0.363,0.501-0.292c0.036,0.279,0.273,0.493,0.555,0.493c0.318,0,0.573-0.254,0.573-0.56
				c0-0.05-0.009-0.094-0.018-0.139l0,0v-0.014c-0.027-0.075-0.063-0.152-0.107-0.206c-0.502-0.698-1.871-0.044-1.63,0.87
				c0.259,0.997,1.691,0.635,1.691,0.635c1.486,0.353,1.196-1.048,1.196-1.048C41.655,51.464,41.466,50.566,41.466,50.566z"/>
			<path fill-rule="evenodd" clip-rule="evenodd" fill="#EC2227" d="M43.271,64.576c0,0,0.063-0.729,0.792-0.439
				c0.578,0.233,0.081,1.338,0.081,1.338s0.327,0.229,0.578-0.515c0.255-0.752-1.034-1.781-2.019-1.097
				c-0.984,0.675-0.439,1.45,0.139,1.576c0.577,0.125,0.761,0.035,1.025-0.291C44.134,64.822,43.638,64.374,43.271,64.576"/>
			<path fill-rule="evenodd" clip-rule="evenodd" fill="#EC2227" d="M39.622,63.864c0,0,0.457,0.099,0.631,0.099
				c0,0,0.542,0.734,1.213,1.361c0.671,0.635,0.734,1.02,0.251,1.684c-0.476,0.657-0.945,1.525-2.463,1.525
				c0,0,0.734-0.868,0.533-2.283c-0.206-1.418-1.115-2.18-1.934-2.614c-0.824-0.435-2.108-0.699-2.676-1.025
				c-0.57-0.322-1.048-0.833-1.062-1.5c-0.008-0.672,0.873-1.478,2.148-0.699c0,0,0.646,0.672-0.139,1.263
				c0,0-0.859,0.595-1.204-0.479c0,0-0.099-0.335,0.282-0.492c0.38-0.147-0.229-0.569-0.605,0.049
				c-0.38,0.618,0.063,1.517,0.645,1.558c0.577,0.036,0.984-0.041,0.984-0.041s1.71,1.236,2.812,1.366c0,0,0.138,0.796,0.796,1.297
				c0.653,0.507,1.324,1.316,0.948,1.858c-0.38,0.542-0.899,0.686-0.899,0.686s-0.134,0.51,0.242,0.438
				c0.38-0.076,1.665-0.85,1.186-1.956C40.831,64.845,39.761,64.526,39.622,63.864z"/>
			<path fill-rule="evenodd" clip-rule="evenodd" fill="#EC2227" d="M33.337,41.59c0,0-1.5-1.021-2.865-0.174
				c-1.36,0.86-0.662,3.299,0.216,3.581c0,0,2.059-0.506,1.853,1.289c0,0,0.622,0.609,1.23,0c0,0,0.166-0.47,0.417-0.47
				c0,0-3.161-1.217-1.611-3.729c0,0,0.17-0.38,0.457-0.25c0.287,0.134-0.018,0.587-0.265,0.891
				c-0.246,0.299-0.269,1.307,0.909,2.162l0.927,0.563l0.265-0.255c0,0-1.401-0.215-1.549-1.826
				c-0.157-1.611,1.36-1.987,1.871-2.099l0.363-0.094C35.554,41.179,34.492,40.109,33.337,41.59z"/>
			<path fill-rule="evenodd" clip-rule="evenodd" fill="#EC2227" d="M32.134,46.813c0,0,0.774,0.358,0.948,0.323
				c0,0-0.644,0.931-0.604,1.285c0,0-1.025,0.125-1.808-0.596c-0.779-0.716-0.972-1.987,0.357-2.471
				c1.325-0.484,1.353,1.042,0.833,1.204c-0.52,0.156-1.24,0.219-1.164-0.282c0.077-0.507,0.546-0.13,0.493,0.058
				c-0.054,0.196,0.582-0.058,0.264-0.403c-0.318-0.341-1.199-0.341-1.159,0.47C30.33,47.208,31.364,47.459,32.134,46.813z"/>
		</g>
		<rect x="6.225" y="19.277" fill="#FFFFFF" width="74.677" height="1.696"/>
		<path fill="#FFFFFF" d="M51.134,20.123c-1.467-2.669-4.305-4.477-7.568-4.477c-3.264,0-6.101,1.808-7.569,4.477H51.134z"/>
		<rect x="42.72" y="4.872" fill="#FFFFFF" width="1.687" height="15.251"/>
		<polygon fill="#FFFFFF" points="45.16,17.988 52.935,4.867 54.389,5.731 46.614,18.847 		"/>
		
			<rect x="46.304" y="11.015" transform="matrix(-0.8513 0.5246 -0.5246 -0.8513 116.8792 -9.4006)" fill="#FFFFFF" width="26.936" height="1.689"/>
		<polygon fill="#FFFFFF" points="58.404,20.123 77.097,13.892 76.228,12.405 54.483,19.648 54.645,20.123 		"/>
		<g>
			<polygon fill="#FFFFFF" points="41.973,17.988 34.197,4.867 32.738,5.731 40.518,18.847 			"/>
			
				<rect x="13.892" y="11.015" transform="matrix(0.8513 0.5246 -0.5246 0.8513 10.289 -12.5904)" fill="#FFFFFF" width="26.936" height="1.689"/>
			<polygon fill="#FFFFFF" points="28.728,20.123 10.034,13.892 10.898,12.405 32.644,19.648 32.487,20.123 			"/>
		</g>
		<g>
			<g>
				<path fill="#FFFFFF" d="M23.226,9.282c-1.549,2.506-0.774,5.788,1.723,7.336c2.498,1.553,5.784,0.783,7.333-1.714
					c1.558-2.499,0.783-5.792-1.715-7.341C28.061,6.013,24.78,6.783,23.226,9.282z M31.579,14.465
					c-1.312,2.104-4.079,2.757-6.191,1.451c-2.113-1.308-2.766-4.079-1.459-6.191c1.315-2.113,4.091-2.761,6.195-1.459
					C32.237,9.581,32.891,12.352,31.579,14.465z"/>
				<path fill="#FFFFFF" d="M27.751,17.634L27.751,17.634c-1.029,0-2.04-0.286-2.914-0.833c-2.593-1.607-3.398-5.031-1.787-7.628
					c1.012-1.642,2.775-2.619,4.709-2.619c1.029,0,2.037,0.288,2.918,0.833c2.597,1.603,3.397,5.027,1.791,7.624
					C31.449,16.654,29.685,17.634,27.751,17.634z M27.761,6.972c-1.786,0-3.416,0.913-4.352,2.426
					c-1.49,2.399-0.746,5.556,1.652,7.05c0.81,0.498,1.741,0.761,2.69,0.761c1.791,0,3.411-0.899,4.355-2.417
					c1.486-2.399,0.748-5.559-1.651-7.045C29.64,7.245,28.708,6.972,27.761,6.972z M27.751,16.801c-0.869,0-1.732-0.241-2.48-0.703
					c-1.065-0.667-1.812-1.705-2.104-2.927c-0.286-1.227-0.076-2.493,0.586-3.554c0.864-1.405,2.364-2.229,4.007-2.229
					c0.873,0,1.728,0.243,2.474,0.708c1.07,0.658,1.823,1.691,2.109,2.927c0.277,1.223,0.081,2.484-0.587,3.554
					C30.894,15.968,29.398,16.801,27.751,16.801z M27.761,7.804c-1.495,0-2.856,0.763-3.648,2.027
					c-0.605,0.972-0.793,2.123-0.529,3.246c0.26,1.11,0.94,2.055,1.912,2.655c0.681,0.425,1.463,0.648,2.256,0.648
					c1.495,0,2.865-0.756,3.648-2.028c0.605-0.971,0.792-2.125,0.533-3.24c-0.26-1.115-0.94-2.064-1.916-2.664
					C29.336,8.033,28.557,7.804,27.761,7.804z"/>
			</g>
			<g>
				<g>
					<polygon fill="#FFFFFF" points="32.478,14.519 32.031,15.244 23.011,9.652 23.463,8.928 					"/>
					<path fill="#FFFFFF" d="M32.099,15.535L22.72,9.725l0.671-1.087l9.382,5.81L32.099,15.535z M23.302,9.585l8.662,5.368
						l0.228-0.368L23.53,9.223L23.302,9.585z"/>
				</g>
				<g>
					<path fill="#FFFFFF" d="M23.034,8.57c0.241,0.147,0.313,0.457,0.17,0.698c-0.152,0.241-0.465,0.313-0.703,0.166
						c-0.238-0.152-0.313-0.462-0.166-0.704C22.487,8.494,22.792,8.422,23.034,8.57z"/>
					<path fill="#FFFFFF" d="M22.765,9.715c-0.13,0-0.26-0.031-0.376-0.098c-0.336-0.21-0.439-0.663-0.232-0.994
						c0.134-0.211,0.366-0.341,0.613-0.341c0.134,0,0.264,0.037,0.38,0.107c0.162,0.1,0.278,0.26,0.322,0.448
						c0.041,0.184,0.009,0.376-0.089,0.546C23.248,9.595,23.016,9.715,22.765,9.715z M22.77,8.704c-0.103,0-0.198,0.054-0.255,0.144
						c-0.081,0.138-0.036,0.317,0.098,0.407c0.139,0.084,0.327,0.035,0.408-0.099c0.04-0.067,0.058-0.148,0.035-0.224
						c-0.018-0.077-0.062-0.139-0.13-0.183C22.877,8.722,22.823,8.704,22.77,8.704z"/>
				</g>
				<g>
					<path fill="#FFFFFF" d="M32.957,14.719c0.238,0.148,0.31,0.462,0.166,0.699c-0.152,0.237-0.466,0.313-0.699,0.165
						c-0.241-0.147-0.313-0.46-0.165-0.699C32.407,14.648,32.72,14.567,32.957,14.719z"/>
					<path fill="#FFFFFF" d="M32.688,15.87c-0.134,0-0.264-0.041-0.376-0.112c-0.336-0.202-0.443-0.649-0.232-0.984
						c0.129-0.216,0.357-0.341,0.613-0.341c0.13,0,0.264,0.036,0.376,0.107c0.161,0.104,0.277,0.261,0.318,0.448
						c0.049,0.189,0.013,0.376-0.085,0.542C33.168,15.745,32.939,15.87,32.688,15.87z M32.693,14.859
						c-0.108,0-0.197,0.049-0.255,0.134c-0.085,0.139-0.041,0.327,0.094,0.412c0.134,0.082,0.322,0.036,0.407-0.093
						c0.044-0.072,0.058-0.152,0.04-0.228s-0.067-0.144-0.134-0.179C32.8,14.868,32.747,14.859,32.693,14.859z"/>
				</g>
			</g>
			<g>
				<g>
					<polygon fill="#FFFFFF" points="25.29,16.833 24.559,16.38 30.151,7.361 30.876,7.809 					"/>
					<path fill="#FFFFFF" d="M25.352,17.119l-1.082-0.672l5.814-9.373l1.087,0.672L25.352,17.119z M24.852,16.309l0.366,0.229
						l5.367-8.653l-0.362-0.233L24.852,16.309z"/>
				</g>
				<g>
					<path fill="#FFFFFF" d="M31.233,7.388c-0.146,0.233-0.456,0.309-0.698,0.157c-0.236-0.147-0.308-0.461-0.165-0.694
						c0.148-0.24,0.466-0.313,0.698-0.165C31.314,6.828,31.381,7.146,31.233,7.388z"/>
					<path fill="#FFFFFF" d="M30.805,7.831c-0.134,0-0.27-0.036-0.38-0.107c-0.337-0.206-0.44-0.649-0.229-0.99
						c0.13-0.206,0.358-0.335,0.609-0.335c0.134,0,0.263,0.041,0.375,0.107c0.339,0.206,0.443,0.649,0.233,0.99
						C31.284,7.706,31.055,7.831,30.805,7.831z M30.805,6.819c-0.104,0-0.197,0.05-0.251,0.144
						c-0.089,0.138-0.045,0.317,0.094,0.406c0.138,0.081,0.327,0.036,0.407-0.094c0.09-0.143,0.045-0.327-0.094-0.417
						C30.912,6.833,30.862,6.819,30.805,6.819z"/>
				</g>
				<g>
					<path fill="#FFFFFF" d="M25.084,17.303c-0.148,0.237-0.457,0.317-0.699,0.166c-0.232-0.148-0.309-0.462-0.16-0.698
						c0.142-0.237,0.46-0.309,0.693-0.167C25.16,16.752,25.232,17.07,25.084,17.303z"/>
					<path fill="#FFFFFF" d="M24.654,17.759c-0.135,0-0.269-0.04-0.381-0.111c-0.335-0.211-0.434-0.649-0.228-0.989
						c0.134-0.211,0.358-0.341,0.608-0.341c0.134,0,0.264,0.041,0.376,0.113c0.166,0.098,0.277,0.255,0.321,0.443
						c0.045,0.188,0.014,0.38-0.088,0.541C25.133,17.629,24.905,17.759,24.654,17.759z M24.654,16.744
						c-0.103,0-0.197,0.048-0.25,0.138c-0.09,0.139-0.045,0.323,0.099,0.408c0.134,0.085,0.322,0.036,0.403-0.098
						c0.044-0.063,0.058-0.143,0.035-0.224c-0.018-0.071-0.062-0.134-0.13-0.179C24.761,16.757,24.708,16.744,24.654,16.744z"/>
				</g>
			</g>
			<g>
				<g>
					<g>
						
							<rect x="27.332" y="6.805" transform="matrix(0.9731 -0.2304 0.2304 0.9731 -2.0436 6.723)" fill="#FFFFFF" width="0.856" height="10.611"/>
						<path fill="#FFFFFF" d="M28.4,17.629L25.881,6.891l1.24-0.292l2.52,10.739L28.4,17.629z M26.386,7.205l2.329,9.919l0.42-0.098
							l-2.323-9.919L26.386,7.205z"/>
					</g>
					<g>
						<path fill="#FFFFFF" d="M26.919,6.295c0.062,0.277-0.108,0.547-0.381,0.608c-0.273,0.068-0.546-0.102-0.609-0.375
							c-0.067-0.278,0.103-0.551,0.38-0.609C26.579,5.848,26.856,6.023,26.919,6.295z"/>
						<path fill="#FFFFFF" d="M26.426,7.133c-0.34,0-0.626-0.233-0.706-0.556c-0.045-0.188-0.008-0.38,0.089-0.55
							c0.108-0.158,0.259-0.274,0.447-0.319c0.058-0.008,0.112-0.013,0.169-0.013c0.332,0,0.618,0.223,0.695,0.554
							c0.089,0.381-0.148,0.766-0.533,0.86C26.534,7.124,26.48,7.133,26.426,7.133z M26.426,6.112l-0.071,0.013
							c-0.072,0.013-0.144,0.063-0.188,0.13c-0.036,0.067-0.053,0.143-0.031,0.224c0.031,0.157,0.192,0.255,0.353,0.224
							c0.162-0.04,0.26-0.202,0.224-0.357C26.677,6.207,26.561,6.112,26.426,6.112z"/>
					</g>
					<g>
						<path fill="#FFFFFF" d="M29.587,17.656c0.062,0.277-0.107,0.546-0.381,0.613c-0.273,0.067-0.545-0.107-0.608-0.38
							c-0.067-0.269,0.103-0.546,0.376-0.609C29.246,17.213,29.515,17.388,29.587,17.656z"/>
						<path fill="#FFFFFF" d="M29.09,18.498c-0.336,0-0.623-0.232-0.699-0.56c-0.094-0.385,0.147-0.77,0.534-0.863
							c0.053-0.013,0.111-0.018,0.165-0.018c0.336,0,0.622,0.224,0.698,0.555c0.094,0.385-0.152,0.775-0.532,0.863
							C29.203,18.489,29.144,18.498,29.09,18.498z M29.09,17.481l-0.072,0.004c-0.156,0.041-0.255,0.197-0.218,0.358
							c0.035,0.152,0.197,0.259,0.357,0.22c0.162-0.041,0.255-0.198,0.225-0.359C29.344,17.566,29.229,17.481,29.09,17.481z"/>
					</g>
				</g>
				<g>
					<g>
						<polygon fill="#FFFFFF" points="22.667,13.726 22.479,12.894 32.8,10.468 32.998,11.3 						"/>
						<path fill="#FFFFFF" d="M22.515,13.981l-0.296-1.249l10.743-2.516l0.291,1.245L22.515,13.981z M22.729,13.05l0.099,0.421
							l9.919-2.328l-0.104-0.42L22.729,13.05z"/>
					</g>
					<g>
						<path fill="#FFFFFF" d="M33.553,11.255c-0.273,0.063-0.547-0.112-0.609-0.38c-0.063-0.268,0.107-0.542,0.38-0.608
							c0.274-0.067,0.546,0.103,0.609,0.376C34,10.92,33.83,11.188,33.553,11.255z"/>
						<path fill="#FFFFFF" d="M33.437,11.484c-0.332,0-0.618-0.233-0.698-0.56c-0.09-0.385,0.152-0.77,0.537-0.864
							c0.053-0.018,0.107-0.018,0.161-0.018c0.335,0,0.627,0.228,0.703,0.55c0.04,0.189,0.008,0.385-0.09,0.546
							c-0.099,0.162-0.259,0.278-0.448,0.322C33.548,11.471,33.494,11.484,33.437,11.484z M33.437,10.463c0,0-0.046,0-0.068,0.008
							c-0.156,0.041-0.255,0.193-0.218,0.354c0.035,0.158,0.197,0.26,0.354,0.224c0.081-0.018,0.148-0.066,0.184-0.134
							c0.044-0.067,0.058-0.143,0.041-0.228C33.695,10.557,33.576,10.463,33.437,10.463z"/>
					</g>
					<g>
						<path fill="#FFFFFF" d="M22.188,13.918c-0.269,0.067-0.542-0.103-0.609-0.376c-0.063-0.273,0.107-0.55,0.38-0.609
							c0.27-0.066,0.546,0.104,0.609,0.376C22.635,13.583,22.465,13.851,22.188,13.918z"/>
						<path fill="#FFFFFF" d="M22.071,14.147c-0.335,0-0.622-0.233-0.698-0.56c-0.041-0.183-0.014-0.372,0.09-0.538
							c0.103-0.16,0.264-0.277,0.448-0.322c0.054-0.019,0.107-0.022,0.161-0.022c0.336,0,0.622,0.232,0.704,0.56
							c0.089,0.386-0.152,0.771-0.538,0.864C22.183,14.142,22.129,14.147,22.071,14.147z M22.071,13.131c-0.022,0-0.04,0-0.04,0
							c-0.098,0.027-0.166,0.072-0.21,0.138c-0.04,0.072-0.049,0.148-0.032,0.225c0.032,0.157,0.193,0.26,0.354,0.224
							c0.156-0.04,0.259-0.202,0.219-0.358C22.335,13.225,22.21,13.131,22.071,13.131z"/>
					</g>
				</g>
			</g>
		</g>
		<path fill-rule="evenodd" clip-rule="evenodd" fill="#FFFFFF" d="M40.858,13.896c0,0,5.085-0.381,6.257,2.373
			c0,0,5.179-1.89,12.471,2.3l9.355-6.205v-2.229c0,0-3.931-2.86-13.881-1.289c0,0-1.781-3.081-8.057-1.674L40.858,13.896z"/>
		<path fill="#EC2227" d="M59.582,16.632l-0.04-0.028c-5.632-3.938-11.782-0.998-11.844-0.97l-0.448,0.214l7.905-7.162l0.094,0.107
			l-7.23,6.549c1.451-0.573,6.694-2.256,11.567,1.12l9.315-6.384l0.085,0.117L59.582,16.632z"/>
		<path fill="#EC2227" d="M59.582,17.719l-0.04-0.027c-5.64-3.938-11.791-2.068-11.853-2.049l-0.045-0.139
			c0.062-0.018,6.253-1.898,11.942,2.05l9.315-6.387l0.085,0.115L59.582,17.719z"/>
	</g>
	<g>
		<path fill="#ED1C24" d="M107.34,43.065c-1.542,1.619-3.639,2.428-6.291,2.428h-6.615v-7.007h-1.584v-3.932h1.584v-6.592h5.897
			c0.856,0,1.607,0.047,2.255,0.139c0.748,0.093,1.418,0.251,2.012,0.475c1.326,0.501,2.455,1.388,3.388,2.66
			c1.071,1.488,1.607,3.304,1.607,5.446C109.595,39.35,108.844,41.477,107.34,43.065z M104.103,33.283
			c-0.732-0.925-1.815-1.388-3.25-1.388H98.91v2.66h2.556v3.932H98.91v3.076h1.919c1.465,0,2.563-0.447,3.296-1.341
			c0.663-0.817,0.995-1.974,0.995-3.469C105.12,35.279,104.781,34.123,104.103,33.283z"/>
		<path fill="#ED1C24" d="M123.31,45.494l-0.855-2.532h-6.083l-0.925,2.532h-4.81l7.03-17.531h3.527l6.973,17.531H123.31z
			 M117.516,51.171v-3.573h3.77v3.573H117.516z M119.471,33.421h-0.07l-1.804,5.99h3.677L119.471,33.421z"/>
		<path fill="#ED1C24" d="M129.958,45.494V27.963h4.475v17.531H129.958z"/>
		<path fill="#ED1C24" d="M155.122,45.494v-7.007h-5.736v7.007h-4.475V27.963h4.475v6.592h5.736v-6.592h4.475v17.531H155.122z"/>
		<path fill="#ED1C24" d="M177.785,43.227c-1.796,1.734-3.985,2.602-6.567,2.602c-2.513,0-4.669-0.852-6.464-2.556
			c-1.836-1.727-2.753-3.835-2.753-6.325c0-1.326,0.228-2.575,0.683-3.747c0.239-0.625,0.621-1.28,1.146-1.966
			c1.818-2.397,4.29-3.597,7.412-3.597c2.574,0,4.756,0.871,6.544,2.614c1.805,1.75,2.707,3.908,2.707,6.476
			C180.492,39.304,179.59,41.469,177.785,43.227z M174.722,33.144c-0.918-1.049-2.07-1.573-3.458-1.573
			c-1.402,0-2.559,0.509-3.47,1.526c-0.878,0.979-1.317,2.174-1.317,3.585c0,1.441,0.443,2.66,1.33,3.654
			c0.917,1.041,2.085,1.561,3.504,1.561c1.364,0,2.501-0.524,3.411-1.573c0.863-0.995,1.295-2.186,1.295-3.573
			C176.017,35.341,175.585,34.138,174.722,33.144z M169.367,51.171v-3.573h3.771v3.573H169.367z"/>
		<path fill="#ED1C24" d="M200.29,38.937c-0.51,2.059-1.584,3.724-3.227,4.996c-1.627,1.265-3.504,1.896-5.632,1.896
			c-2.56,0-4.737-0.879-6.533-2.636c-1.804-1.766-2.707-3.928-2.707-6.488c0-2.551,0.896-4.707,2.684-6.464
			c1.78-1.735,3.951-2.602,6.511-2.602c3.33,0,5.901,1.373,7.713,4.117c0.632,0.948,1.028,1.904,1.191,2.867h-4.695
			c-0.779-2.035-2.189-3.053-4.232-3.053c-1.38,0-2.518,0.513-3.411,1.538c-0.855,0.987-1.284,2.178-1.284,3.573
			c0,1.411,0.429,2.618,1.284,3.62c0.901,1.064,2.047,1.596,3.435,1.596c1.912,0,3.314-0.987,4.209-2.96H200.29z"/>
		<path fill="#ED1C24" d="M220.121,45.494v-7.007h-5.735v7.007h-4.476V27.963h4.476v6.592h5.735v-6.592h4.476v17.531H220.121z"/>
		<path fill="#ED1C24" d="M241.166,38.555c0,1.195-0.1,2.163-0.3,2.903c-0.271,0.948-0.752,1.773-1.446,2.475
			c-1.24,1.265-2.875,1.896-4.902,1.896c-0.987,0-1.896-0.143-2.729-0.428c-0.94-0.324-1.711-0.806-2.313-1.446
			c-0.74-0.778-1.233-1.611-1.48-2.498c-0.107-0.401-0.185-0.852-0.231-1.353c-0.03-0.401-0.046-0.917-0.046-1.55V27.963h4.476
			v10.592c0,0.463,0.022,0.86,0.069,1.191c0.062,0.424,0.165,0.783,0.313,1.076c0.354,0.717,0.986,1.075,1.896,1.075
			c0.94,0,1.572-0.351,1.896-1.052c0.132-0.285,0.224-0.64,0.277-1.064c0.031-0.308,0.047-0.717,0.047-1.226V27.963h4.475V38.555z"
			/>
		<path fill="#ED1C24" d="M250.187,26.425l-1.087-1.364l-1.086,1.364h-3.84l3.688-3.931h2.567l3.55,3.931H250.187z M244.289,45.494
			V27.963h9.736v3.932h-5.446v2.729h5.285v3.932h-5.285v3.007h5.446v3.932H244.289z M253.413,24.436l-1.11-2.324l5.678-3.052
			l1.261,2.798L253.413,24.436z"/>
		<path fill="#ED1C24" d="M102.156,68.043V61.52h-7.194v6.524h-1.395v-13.91h1.395v6.129h7.194v-6.129h1.385v13.91H102.156z"/>
		<path fill="#ED1C24" d="M117.725,62.804c0,0.521-0.037,1.013-0.11,1.478c-0.092,0.544-0.229,1.015-0.413,1.413
			c-0.808,1.731-2.211,2.597-4.211,2.597c-2,0-3.404-0.865-4.212-2.597c-0.184-0.397-0.318-0.868-0.403-1.413
			c-0.08-0.465-0.12-0.958-0.12-1.478v-8.67h1.395v8.67c0,0.453,0.031,0.881,0.092,1.285c0.08,0.514,0.205,0.924,0.376,1.229
			c0.624,1.138,1.581,1.707,2.872,1.707c1.291,0,2.248-0.569,2.872-1.707c0.171-0.306,0.296-0.715,0.376-1.229
			c0.067-0.403,0.101-0.832,0.101-1.285v-8.67h1.385V62.804z"/>
		<path fill="#ED1C24" d="M122.347,68.043v-13.91h7.607v1.266h-6.212v4.992h6.01v1.266h-6.01v5.129h6.212v1.257H122.347z"/>
		<path fill="#ED1C24" d="M150.935,62.804c0,0.521-0.036,1.013-0.109,1.478c-0.093,0.544-0.229,1.015-0.413,1.413
			c-0.808,1.731-2.211,2.597-4.212,2.597s-3.404-0.865-4.212-2.597c-0.184-0.397-0.318-0.868-0.403-1.413
			c-0.08-0.465-0.119-0.958-0.119-1.478v-8.67h1.395v8.67c0,0.453,0.03,0.881,0.092,1.285c0.08,0.514,0.205,0.924,0.376,1.229
			c0.624,1.138,1.581,1.707,2.872,1.707c1.29,0,2.248-0.569,2.872-1.707c0.171-0.306,0.296-0.715,0.376-1.229
			c0.067-0.403,0.102-0.832,0.102-1.285v-8.67h1.385V62.804z"/>
		<path fill="#ED1C24" d="M165.329,68.043l-8.248-12.231h-0.037v12.231h-1.395v-13.91h1.881l7.763,11.543h0.036V54.133h1.387v13.91
			H165.329z"/>
		<path fill="#ED1C24" d="M171.448,68.043v-13.91h1.395v13.91H171.448z"/>
		<path fill="#ED1C24" d="M183.393,68.043h-1.367l-5.734-13.91h1.541l4.899,12.185l4.928-12.185h1.505L183.393,68.043z"/>
		<path fill="#ED1C24" d="M192.521,68.043v-13.91h7.606v1.266h-6.212v4.992h6.01v1.266h-6.01v5.129h6.212v1.257H192.521z"/>
		<path fill="#ED1C24" d="M212.705,61.575c-0.777,0.777-1.757,1.205-2.937,1.285l3.927,5.184h-1.752l-4.716-6.294l1.504-0.009
			c0.631-0.018,1.126-0.085,1.487-0.202c1.529-0.465,2.293-1.447,2.293-2.945c0-1.229-0.508-2.12-1.523-2.67
			c-0.396-0.214-0.834-0.361-1.312-0.44c-0.354-0.056-0.82-0.083-1.395-0.083h-2.423v12.644h-1.395v-13.91h3.533
			c0.312,0,0.593,0.006,0.844,0.018c0.324,0.019,0.621,0.043,0.891,0.074c0.685,0.085,1.247,0.232,1.688,0.44
			c1.652,0.795,2.478,2.117,2.478,3.964C213.897,59.798,213.5,60.779,212.705,61.575z"/>
		<path fill="#ED1C24" d="M224.089,67.117c-0.813,0.783-1.798,1.174-2.954,1.174c-1.242,0-2.261-0.379-3.056-1.138
			c-0.802-0.758-1.211-1.758-1.229-3h1.395c0.079,1.915,1.043,2.872,2.891,2.872c0.777,0,1.435-0.263,1.973-0.789
			c0.55-0.538,0.826-1.196,0.826-1.973c0-0.837-0.328-1.51-0.982-2.018c-0.263-0.202-0.594-0.388-0.99-0.56
			c-0.301-0.122-0.677-0.25-1.129-0.385c-0.582-0.171-1.046-0.333-1.395-0.486c-0.466-0.196-0.848-0.416-1.147-0.661
			c-0.709-0.587-1.063-1.428-1.063-2.523c0-1.083,0.381-1.979,1.146-2.688c0.752-0.698,1.673-1.046,2.762-1.046
			c1.076,0,1.984,0.358,2.725,1.074c0.753,0.728,1.129,1.63,1.129,2.707h-1.395c0-0.685-0.238-1.275-0.716-1.771
			c-0.483-0.501-1.064-0.752-1.743-0.752c-0.704,0-1.297,0.229-1.78,0.688c-0.489,0.459-0.733,1.037-0.733,1.734
			c0,0.807,0.373,1.422,1.119,1.844c0.275,0.153,0.633,0.3,1.073,0.44l1.11,0.331c1.059,0.318,1.875,0.792,2.449,1.422
			c0.637,0.697,0.955,1.563,0.955,2.597C225.328,65.358,224.915,66.328,224.089,67.117z"/>
		<path fill="#ED1C24" d="M229.088,68.043v-13.91h1.396v13.91H229.088z"/>
		<path fill="#ED1C24" d="M238.482,55.399v12.644h-1.395V55.399h-3.193v-1.266h7.763v1.266H238.482z"/>
		<path fill="#ED1C24" d="M249.903,63.4v4.643h-1.395V63.4l-4.826-9.267h1.541l3.964,7.799l4.074-7.799h1.522L249.903,63.4z"/>
	</g>
</g>
</svg>
